<?xml version="1.0" encoding="UTF-8"?>
<svg width="600" height="400" viewBox="0 0 600 400" xmlns="http://www.w3.org/2000/svg">
    <!-- Background -->
    <rect width="600" height="400" fill="#f8f9fa"/>
    
    <!-- Chart Area -->
    <rect x="50" y="50" width="500" height="300" fill="white" rx="10" ry="10" stroke="#e9ecef" stroke-width="2"/>
    
    <!-- Chart Lines -->
    <path d="M50,250 L150,200 L250,220 L350,180 L450,150 L550,100" 
          stroke="#4361ee" stroke-width="3" fill="none"/>
    
    <!-- Data Points -->
    <circle cx="150" cy="200" r="5" fill="#4361ee"/>
    <circle cx="250" cy="220" r="5" fill="#4361ee"/>
    <circle cx="350" cy="180" r="5" fill="#4361ee"/>
    <circle cx="450" cy="150" r="5" fill="#4361ee"/>
    <circle cx="550" cy="100" r="5" fill="#4361ee"/>
    
    <!-- Grid Lines -->
    <line x1="50" y1="100" x2="550" y2="100" stroke="#e9ecef" stroke-width="1"/>
    <line x1="50" y1="200" x2="550" y2="200" stroke="#e9ecef" stroke-width="1"/>
    <line x1="50" y1="300" x2="550" y2="300" stroke="#e9ecef" stroke-width="1"/>
    
    <!-- Volume Bars -->
    <rect x="100" y="250" width="40" height="50" fill="#7209b7" opacity="0.7"/>
    <rect x="200" y="270" width="40" height="30" fill="#7209b7" opacity="0.7"/>
    <rect x="300" y="230" width="40" height="70" fill="#7209b7" opacity="0.7"/>
    <rect x="400" y="200" width="40" height="100" fill="#7209b7" opacity="0.7"/>
    <rect x="500" y="150" width="40" height="150" fill="#7209b7" opacity="0.7"/>
</svg> 